<svg width="100" height="94" viewBox="0 0 100 94" fill="none" xmlns="http://www.w3.org/2000/svg">
<g clip-path="url(#clip0_278_2211)">
<path d="M16.2103 93.6328V81.4476C16.2103 81.23 15.9303 81.1678 15.837 81.3544L11.1388 90.3067H8.99191L4.29372 81.3544C4.20037 81.1678 3.92035 81.23 3.92035 81.4476V93.6328H0V73.8008H4.13815L10.0187 85.0845L15.9614 73.8008H20.0685V93.6328H16.2103Z" fill="#343942"/>
<path d="M31.1144 73.7695H35.0347L42.3154 93.6326H38.3328L36.7149 88.6591H29.4031L27.7541 93.6326H23.7715L31.1144 73.7695ZM35.8126 85.9547L33.6035 79.3648C33.4479 78.8674 32.7012 78.8674 32.5456 79.3648L30.3365 85.9547H35.8126Z" fill="#343942"/>
<path d="M45.0217 89.4051C45.2706 89.5605 45.7062 89.7781 46.2974 89.9957C46.9197 90.2444 47.6353 90.3377 48.4754 90.3377C49.191 90.3377 49.8133 90.2133 50.28 89.9646C50.7467 89.716 51.12 89.3429 51.3689 88.8456C51.6179 88.3482 51.7734 87.6955 51.8668 86.9183C51.9601 86.1101 51.9912 85.1776 51.9912 84.0586V73.7695H55.8493V83.7788C55.8493 85.2708 55.756 86.6075 55.6004 87.8198C55.4449 89.0321 55.1026 90.089 54.6359 90.9904C54.1381 91.8919 53.4225 92.5757 52.4268 93.042C51.4623 93.5083 50.1555 93.757 48.5376 93.757C47.6353 93.757 46.8263 93.6637 46.1418 93.4461C45.4262 93.2285 44.7728 92.9488 44.1816 92.5136L45.0217 89.4051Z" fill="#343942"/>
<path d="M69.7576 93.7573C68.2953 93.7573 66.9885 93.4775 65.8061 92.918C64.6238 92.3585 63.5971 91.6124 62.757 90.6488C61.9169 89.6852 61.2635 88.5972 60.7968 87.416C60.3301 86.2037 60.1123 84.9914 60.1123 83.7169C60.1123 82.3803 60.3612 81.1369 60.859 79.9246C61.3569 78.7123 62.0414 77.6554 62.9126 76.7229C63.7837 75.7904 64.8105 75.0443 65.9928 74.4848C67.1752 73.9253 68.4819 73.6455 69.8821 73.6455C71.3133 73.6455 72.6201 73.9253 73.8024 74.5159C74.9847 75.1065 76.0115 75.8525 76.8516 76.8472C77.6916 77.8109 78.345 78.8988 78.8117 80.08C79.2785 81.2612 79.4963 82.5046 79.4963 83.7791C79.4963 85.0847 79.2473 86.328 78.7806 87.5403C78.2828 88.7527 77.6294 89.8095 76.7582 90.7421C75.887 91.6746 74.8603 92.4206 73.678 92.9491C72.4334 93.4775 71.1577 93.7573 69.7576 93.7573ZM63.9704 83.6859C63.9704 84.5562 64.0949 85.3644 64.3749 86.1726C64.6238 86.9808 65.0283 87.6958 65.495 88.3175C65.9928 88.9392 66.584 89.4365 67.2996 89.8095C68.0152 90.1826 68.8242 90.3691 69.7576 90.3691C70.691 90.3691 71.5311 90.1826 72.2467 89.8095C72.9623 89.4365 73.5846 88.9081 74.0513 88.2864C74.5491 87.6336 74.8914 86.9187 75.1714 86.1415C75.4203 85.3644 75.5448 84.5562 75.5448 83.748C75.5448 82.8777 75.4203 82.0695 75.1403 81.2613C74.8603 80.4841 74.4869 79.7692 73.9891 79.1475C73.4913 78.5258 72.9001 78.0284 72.1845 77.6554C71.4689 77.2824 70.6599 77.0959 69.7576 77.0959C68.7931 77.0959 67.9841 77.2824 67.2685 77.6554C66.5529 78.0284 65.9617 78.5569 65.4639 79.1786C64.9661 79.8003 64.6238 80.5152 64.3438 81.2923C64.0949 82.0694 63.9704 82.8777 63.9704 83.6859Z" fill="#343942"/>
<path d="M83.9141 93.6328V73.8008H92.7193C93.6216 73.8008 94.4617 73.9873 95.2395 74.3603C96.0174 74.7333 96.6708 75.2307 97.2619 75.8835C97.822 76.5051 98.2576 77.2201 98.5687 77.9972C98.8798 78.7743 99.0354 79.5825 99.0354 80.3907C99.0354 81.23 98.8798 82.0382 98.5998 82.8153C98.3198 83.5925 97.8842 84.2763 97.3553 84.8358C96.8263 85.4264 96.1729 85.8616 95.4573 86.1725L99.9999 93.6328H95.7373L92.5015 88.3795C91.9725 87.5091 91.008 86.9807 89.9813 86.9807H87.7722V93.6328H83.9141ZM87.8033 83.5925H92.6571C93.1549 83.5925 93.5594 83.437 93.9327 83.1573C94.3061 82.8775 94.6172 82.4734 94.835 82.0071C95.0528 81.5098 95.1773 80.9813 95.1773 80.3907C95.1773 79.769 95.0528 79.2095 94.7728 78.7122C94.5239 78.2459 94.1816 77.8729 93.7772 77.5931C93.3727 77.3133 92.9371 77.189 92.4704 77.189H87.8033V83.5925Z" fill="#343942"/>
<path d="M20.8775 0H5.38281V15.4802H20.8775V0Z" fill="#F29F06"/>
<path d="M86.8078 0H79.1226H63.6279V15.4802H76.8513C78.0959 15.4802 79.1226 16.506 79.1226 17.7493V44.3578V45.539V66.6144H94.6174V7.80225C94.6174 3.48148 91.1015 0 86.8078 0Z" fill="url(#paint0_linear_278_2211)"/>
<path d="M49.9071 0H42.1598H26.665V15.4802H39.9196C41.1641 15.4802 42.1909 16.506 42.1909 17.7493V44.3578V45.539V66.6144H57.6856V7.77116C57.6856 3.48148 54.2008 0 49.9071 0Z" fill="url(#paint1_linear_278_2211)"/>
<path d="M5.38281 21.2617V34.9079V54.4912V66.6453L12.7879 60.3662L20.8775 66.6453V54.4912V34.9079V21.2617H5.38281Z" fill="url(#paint2_linear_278_2211)"/>
</g>
<defs>
<linearGradient id="paint0_linear_278_2211" x1="79.1026" y1="66.6349" x2="79.1026" y2="0" gradientUnits="userSpaceOnUse">
<stop stop-color="#731456"/>
<stop offset="1" stop-color="#9D215C"/>
</linearGradient>
<linearGradient id="paint1_linear_278_2211" x1="42.1733" y1="66.6349" x2="42.1733" y2="0" gradientUnits="userSpaceOnUse">
<stop stop-color="#731456"/>
<stop offset="1" stop-color="#9D215C"/>
</linearGradient>
<linearGradient id="paint2_linear_278_2211" x1="13.1329" y1="66.6347" x2="13.1329" y2="21.2683" gradientUnits="userSpaceOnUse">
<stop stop-color="#731456"/>
<stop offset="1" stop-color="#9D215C"/>
</linearGradient>
<clipPath id="clip0_278_2211">
<rect width="100" height="94" fill="white"/>
</clipPath>
</defs>
</svg>
